<svg width="32" height="32" viewBox="0 0 32 32" fill="none" xmlns="http://www.w3.org/2000/svg">
<circle cx="16" cy="16" r="16" fill="white" fill-opacity="0.27"/>
<path d="M21.557 22.864L16 17.307L10.443 22.864C10.263 23.044 9.97 23.044 9.789 22.864L9.135 22.21C8.955 22.03 8.955 21.737 9.135 21.556L14.693 16L9.135 10.443C8.955 10.263 8.955 9.97 9.135 9.789L9.789 9.135C9.969 8.955 10.262 8.955 10.443 9.135L16 14.692L21.557 9.135C21.737 8.955 22.03 8.955 22.211 9.135L22.865 9.789C23.045 9.969 23.045 10.262 22.865 10.443L17.307 16L22.864 21.557C23.044 21.737 23.044 22.03 22.864 22.211L22.21 22.865C22.031 23.045 21.737 23.045 21.557 22.864Z" fill="#E9E9E9"/>
</svg>
