<svg width="24" height="24" viewBox="0 0 24 24" fill="none" xmlns="http://www.w3.org/2000/svg">
<path d="M4.75 6H3.75C3.55109 6 3.36032 5.92098 3.21967 5.78033C3.07902 5.63968 3 5.44891 3 5.25C3 5.05109 3.07902 4.86032 3.21967 4.71967C3.36032 4.57902 3.55109 4.5 3.75 4.5H20.25C20.4489 4.5 20.6397 4.57902 20.7803 4.71967C20.921 4.86032 21 5.05109 21 5.25C21 5.44891 20.921 5.63968 20.7803 5.78033C20.6397 5.92098 20.4489 6 20.25 6H6.25V19.25C6.25 19.4142 6.28233 19.5767 6.34515 19.7284C6.40797 19.88 6.50004 20.0178 6.61612 20.1339C6.73219 20.25 6.86999 20.342 7.02165 20.4049C7.1733 20.4677 7.33585 20.5 7.5 20.5H16.5C16.6642 20.5 16.8267 20.4677 16.9784 20.4049C17.13 20.342 17.2678 20.25 17.3839 20.1339C17.5 20.0178 17.592 19.88 17.6548 19.7284C17.7177 19.5767 17.75 19.4142 17.75 19.25V8.25C17.75 8.05109 17.829 7.86032 17.9697 7.71967C18.1103 7.57902 18.3011 7.5 18.5 7.5C18.6989 7.5 18.8897 7.57902 19.0303 7.71967C19.171 7.86032 19.25 8.05109 19.25 8.25V19.25C19.25 20.7688 18.0188 22 16.5 22H7.5C5.98125 22 4.75 20.7688 4.75 19.25V6ZM10 3.5C9.80109 3.5 9.61032 3.42098 9.46967 3.28033C9.32902 3.13968 9.25 2.94891 9.25 2.75C9.25 2.55109 9.32902 2.36032 9.46967 2.21967C9.61032 2.07902 9.80109 2 10 2H14C14.1989 2 14.3897 2.07902 14.5303 2.21967C14.671 2.36032 14.75 2.55109 14.75 2.75C14.75 2.94891 14.671 3.13968 14.5303 3.28033C14.3897 3.42098 14.1989 3.5 14 3.5H10ZM9.25 10.25C9.25 10.0511 9.32902 9.86032 9.46967 9.71967C9.61032 9.57902 9.80109 9.5 10 9.5C10.1989 9.5 10.3897 9.57902 10.5303 9.71967C10.671 9.86032 10.75 10.0511 10.75 10.25V16.25C10.75 16.4489 10.671 16.6397 10.5303 16.7803C10.3897 16.921 10.1989 17 10 17C9.80109 17 9.61032 16.921 9.46967 16.7803C9.32902 16.6397 9.25 16.4489 9.25 16.25V10.25ZM13.25 10.25C13.25 10.0511 13.329 9.86032 13.4697 9.71967C13.6103 9.57902 13.8011 9.5 14 9.5C14.1989 9.5 14.3897 9.57902 14.5303 9.71967C14.671 9.86032 14.75 10.0511 14.75 10.25V16.25C14.75 16.4489 14.671 16.6397 14.5303 16.7803C14.3897 16.921 14.1989 17 14 17C13.8011 17 13.6103 16.921 13.4697 16.7803C13.329 16.6397 13.25 16.4489 13.25 16.25V10.25Z" fill="white"/>
</svg>
