<svg width="24" height="24" viewBox="0 0 24 24" fill="none" xmlns="http://www.w3.org/2000/svg">
<path fill-rule="evenodd" clip-rule="evenodd" d="M15.9519 3.08515C15.9519 3.08515 15.3954 2.25042 14.8389 2.25042C14.3347 2.25042 13.8587 2.29064 12.9995 3.08515C11.8865 4.11423 11.4995 5.5 11.5 7.81526C11.5004 9.35195 11.8053 11.0033 13.1695 11.7106C13.3096 11.7833 13.4356 11.8296 13.5479 11.8567C14.3289 13.4975 15.578 14.5614 16.9651 14.5614C18.4992 14.5614 19.8644 13.2601 20.6144 11.3163C20.6343 11.308 20.6541 11.2991 20.6739 11.2895C21.3016 11.4351 22.1837 11.4819 22.7946 11.496C23.059 11.5021 23.1983 11.1789 23.0295 10.9752C22.7107 10.5902 22.3062 10.0397 22.0732 9.48471C22.0183 9.35388 21.9584 8.96443 21.8769 8.43419L21.8769 8.43417C21.6642 7.05017 21.3041 4.70701 20.4995 3.5C19.7762 2.41507 17.4995 2.00001 16.6727 2.25042C16.0582 2.43656 15.9519 3.08515 15.9519 3.08515ZM2.20937 4.41778C2.4195 3.94624 3.00615 3.85318 3.43882 4.13477L4 4.5L4.01041 2.99836C4.01182 2.79435 4.13632 2.6091 4.33171 2.55041C4.84613 2.39589 5.43822 2.32345 6.11049 2.32345C9.06166 2.32345 10.4678 3.71947 10.5403 7.32684C11.2875 7.61458 11.3419 8.53933 11.0678 9.57502C10.857 10.3715 10.3952 10.9816 9.90992 11.1828C9.12906 13.2065 7.7077 14.5614 6.11049 14.5614C4.5135 14.5614 3.0923 13.2069 2.31137 11.1836C1.82533 10.9832 1.36261 10.3726 1.15149 9.57499C0.87714 8.53851 0.931832 7.61314 1.68068 7.32615C1.70499 6.11936 1.87858 5.16008 2.20937 4.41778ZM8 22C8.55229 22 8.99135 21.5506 9.03451 21C9.13691 19.6939 9.48452 18.8515 10.304 17.9918C10.8019 17.4696 10.7324 16.6026 10.0441 16.3861C9.24943 16.1362 8.39286 16 7.5 16C4.44338 16 1.8121 17.596 0.631888 19.889C0.0893701 20.943 2.03072 22 3.21619 22H8ZM21.7989 22C22.9789 22 23.9217 20.9545 23.411 19.8907C22.3099 17.5968 19.8535 16 17 16C14.1465 16 11.6901 17.5968 10.5889 19.8907C10.0783 20.9545 11.0211 22 12.2011 22H21.7989Z" fill="white"/>
</svg>
