<svg width="28" height="28" viewBox="0 0 28 28" fill="none" xmlns="http://www.w3.org/2000/svg">
<path d="M2.33331 13.3529C2.33331 13.0222 2.47369 12.707 2.71952 12.4858L13.2195 3.03576C13.6632 2.63644 14.3367 2.63644 14.7804 3.03576L25.2804 12.4858C25.5263 12.707 25.6666 13.0222 25.6666 13.3529V23.3333C25.6666 24.622 24.622 25.6667 23.3333 25.6667H18.6666C18.0223 25.6667 17.5 25.1443 17.5 24.5V19.8333C17.5 17.9003 15.933 16.3333 14 16.3333C12.067 16.3333 10.5 17.9003 10.5 19.8333V24.5C10.5 25.1443 9.97764 25.6667 9.33331 25.6667H4.66665C3.37798 25.6667 2.33331 24.622 2.33331 23.3333V13.3529Z" fill="#999999"/>
</svg>
