<svg width="28" height="28" viewBox="0 0 28 28" fill="none" xmlns="http://www.w3.org/2000/svg">
<path d="M2.33337 13.3529C2.33337 13.0222 2.47375 12.707 2.71958 12.4858L13.2196 3.03576C13.6633 2.63644 14.3368 2.63644 14.7805 3.03576L25.2805 12.4858C25.5263 12.707 25.6667 13.0222 25.6667 13.3529V23.3333C25.6667 24.622 24.622 25.6667 23.3334 25.6667H18.6667C18.0224 25.6667 17.5 25.1443 17.5 24.5V19.8333C17.5 17.9003 15.933 16.3333 14 16.3333C12.067 16.3333 10.5 17.9003 10.5 19.8333V24.5C10.5 25.1443 9.97771 25.6667 9.33337 25.6667H4.66671C3.37804 25.6667 2.33337 24.622 2.33337 23.3333V13.3529Z" fill="white"/>
</svg>
