<svg width="18" height="18" viewBox="0 0 18 18" fill="none" xmlns="http://www.w3.org/2000/svg">
<g clip-path="url(#clip0_211_2693)">
<path d="M8.99121 10.1183C7.66222 10.1183 6.41276 9.60074 5.47304 8.661C4.53329 7.72125 4.01576 6.47182 4.01576 5.14283C4.01576 3.81383 4.53329 2.56439 5.47304 1.62465C6.41276 0.684924 7.66222 0.167389 8.99121 0.167389C10.3202 0.167389 11.5696 0.684924 12.5094 1.62465C13.4491 2.56439 13.9666 3.81383 13.9666 5.14283C13.9666 6.47182 13.4491 7.72127 12.5094 8.661C11.5696 9.60074 10.3202 10.1183 8.99121 10.1183ZM8.99121 1.29239C6.86806 1.29239 5.14076 3.01969 5.14076 5.14283C5.14076 7.26596 6.86806 8.99328 8.99121 8.99328C11.1144 8.99328 12.8416 7.26596 12.8416 5.14283C12.8416 3.01969 11.1143 1.29239 8.99121 1.29239ZM1.2832 17.9473C0.972545 17.9473 0.720703 17.6954 0.720703 17.3848C0.720703 16.2745 0.938285 15.197 1.36742 14.1824C1.78179 13.2028 2.37488 12.3231 3.13021 11.5677C3.88554 10.8124 4.76527 10.2193 5.74495 9.80493C6.75953 9.3758 7.83693 9.15821 8.94727 9.15821C10.283 9.15821 11.6094 9.4858 12.7832 10.1056C13.0579 10.2506 13.1631 10.5909 13.018 10.8656C12.8729 11.1403 12.5326 11.2454 12.2579 11.1004C11.2454 10.5658 10.1006 10.2832 8.94727 10.2832C5.03144 10.2832 1.8457 13.469 1.8457 17.3848C1.8457 17.6954 1.59386 17.9473 1.2832 17.9473ZM17.1012 14.9652H12.1436C11.833 14.9652 11.5811 14.7134 11.5811 14.4027C11.5811 14.0921 11.833 13.8402 12.1436 13.8402H17.1012C17.4118 13.8402 17.6637 14.0921 17.6637 14.4027C17.6637 14.7134 17.4118 14.9652 17.1012 14.9652ZM14.6224 17.444C14.3118 17.444 14.0599 17.1922 14.0599 16.8815V11.924C14.0599 11.6133 14.3118 11.3615 14.6224 11.3615C14.9331 11.3615 15.1849 11.6133 15.1849 11.924V16.8815C15.1849 17.1922 14.9331 17.444 14.6224 17.444Z" fill="white"/>
</g>
<defs>
<clipPath id="clip0_211_2693">
<rect width="18" height="18" fill="white"/>
</clipPath>
</defs>
</svg>
