<svg width="24" height="24" viewBox="0 0 24 24" fill="none" xmlns="http://www.w3.org/2000/svg">
<g clip-path="url(#clip0_211_3032)">
<path d="M11.739 22.3275C6.12224 22.3275 1.55174 17.7578 1.55174 12.141C1.55174 6.5235 6.12224 1.9545 11.739 1.9545C17.3565 1.9545 21.9262 6.5235 21.9262 12.141C21.9262 17.7585 17.3557 22.3275 11.739 22.3275ZM11.739 0.453751C5.29499 0.453751 0.0524902 5.69775 0.0524902 12.141C0.0524902 18.585 5.29499 23.8275 11.739 23.8275C18.183 23.8275 23.4262 18.585 23.4262 12.141C23.4262 5.69775 18.1837 0.454501 11.739 0.454501" fill="white"/>
<path d="M15.7555 11.5339L8.73359 7.07218C8.65925 7.0249 8.5749 7.00001 8.48903 7C8.40317 6.99999 8.31882 7.02486 8.24446 7.07212C8.1701 7.11937 8.10836 7.18734 8.06545 7.26919C8.02254 7.35104 7.99996 7.44388 8 7.53837V16.4616C7.99995 16.5561 8.02252 16.649 8.06543 16.7308C8.10835 16.8127 8.17009 16.8807 8.24445 16.9279C8.31882 16.9752 8.40318 17 8.48904 17C8.57491 17 8.65926 16.9751 8.73359 16.9278L15.7555 12.4662C15.8298 12.4189 15.8915 12.351 15.9345 12.2692C15.9774 12.1873 16 12.0945 16 12C16 11.9056 15.9774 11.8127 15.9345 11.7309C15.8916 11.6491 15.8299 11.5811 15.7555 11.5339Z" fill="white"/>
</g>
<defs>
<clipPath id="clip0_211_3032">
<rect width="24" height="24" fill="white"/>
</clipPath>
</defs>
</svg>
