<svg width="24" height="24" viewBox="0 0 24 24" fill="none" xmlns="http://www.w3.org/2000/svg">
<g clip-path="url(#clip0_211_2861)">
<path d="M11.739 22.3275C6.12224 22.3275 1.55174 17.7578 1.55174 12.141C1.55174 6.5235 6.12224 1.9545 11.739 1.9545C17.3565 1.9545 21.9262 6.5235 21.9262 12.141C21.9262 17.7585 17.3557 22.3275 11.739 22.3275ZM11.739 0.453751C5.29499 0.453751 0.0524902 5.69775 0.0524902 12.141C0.0524902 18.585 5.29499 23.8275 11.739 23.8275C18.183 23.8275 23.4262 18.585 23.4262 12.141C23.4262 5.69775 18.1837 0.454501 11.739 0.454501" fill="white"/>
<path d="M9.48901 7.641C9.2901 7.641 9.09934 7.72002 8.95868 7.86067C8.81803 8.00132 8.73901 8.19209 8.73901 8.391V15.891C8.73901 16.0899 8.81803 16.2807 8.95868 16.4213C9.09934 16.562 9.2901 16.641 9.48901 16.641C9.68793 16.641 9.87869 16.562 10.0193 16.4213C10.16 16.2807 10.239 16.0899 10.239 15.891V8.391C10.239 8.19209 10.16 8.00132 10.0193 7.86067C9.87869 7.72002 9.68793 7.641 9.48901 7.641ZM13.989 7.641C13.7901 7.641 13.5993 7.72002 13.4587 7.86067C13.318 8.00132 13.239 8.19209 13.239 8.391V15.891C13.239 16.0899 13.318 16.2807 13.4587 16.4213C13.5993 16.562 13.7901 16.641 13.989 16.641C14.1879 16.641 14.3787 16.562 14.5193 16.4213C14.66 16.2807 14.739 16.0899 14.739 15.891V8.391C14.739 8.19209 14.66 8.00132 14.5193 7.86067C14.3787 7.72002 14.1879 7.641 13.989 7.641Z" fill="white"/>
</g>
<defs>
<clipPath id="clip0_211_2861">
<rect width="24" height="24" fill="white"/>
</clipPath>
</defs>
</svg>
