<svg width="28" height="28" viewBox="0 0 28 28" fill="none" xmlns="http://www.w3.org/2000/svg">
<path d="M2.33337 5.83334V22.1667C2.33337 24.0997 3.90038 25.6667 5.83337 25.6667H14.1179C13.4344 24.9969 12.8681 24.2079 12.4526 23.3333H7.00004C5.71138 23.3333 4.66671 22.2887 4.66671 21V9.33334C4.66671 8.68901 5.18904 8.16668 5.83337 8.16668H22.1667C22.811 8.16668 23.3334 8.68901 23.3334 9.33334V12.4526C24.2079 12.868 24.9969 13.4343 25.6667 14.1179V5.83334C25.6667 3.90035 24.0997 2.33334 22.1667 2.33334H5.83337C3.90038 2.33334 2.33337 3.90035 2.33337 5.83334Z" fill="#999999"/>
<path d="M18.6667 11.6667H19.8334C19.205 11.6667 18.5931 11.7377 18.0055 11.872C18.1934 11.7425 18.4212 11.6667 18.6667 11.6667Z" fill="#999999"/>
<path d="M15.7478 12.7605C15.7102 12.1501 15.2032 11.6667 14.5834 11.6667H13.4167C12.7724 11.6667 12.25 12.189 12.25 12.8333V14C12.25 14.5532 12.635 15.0164 13.1517 15.1364C13.8332 14.1688 14.7196 13.3557 15.7478 12.7605Z" fill="#999999"/>
<path d="M8.16671 11.6667C7.52238 11.6667 7.00004 12.189 7.00004 12.8333V14C7.00004 14.6443 7.52238 15.1667 8.16671 15.1667H9.33337C9.97771 15.1667 10.5 14.6443 10.5 14V12.8333C10.5 12.189 9.97771 11.6667 9.33337 11.6667H8.16671Z" fill="#999999"/>
<path d="M7.00004 18.6667C7.00004 18.0223 7.52238 17.5 8.16671 17.5H9.33337C9.97771 17.5 10.5 18.0223 10.5 18.6667V19.8333C10.5 20.4777 9.97771 21 9.33337 21H8.16671C7.52238 21 7.00004 20.4777 7.00004 19.8333V18.6667Z" fill="#999999"/>
<path fill-rule="evenodd" clip-rule="evenodd" d="M25.6667 19.8333C25.6667 23.055 23.055 25.6667 19.8334 25.6667C16.6117 25.6667 14 23.055 14 19.8333C14 16.6117 16.6117 14 19.8334 14C23.055 14 25.6667 16.6117 25.6667 19.8333ZM21 17.5C21 16.8557 20.4777 16.3333 19.8334 16.3333C19.189 16.3333 18.6667 16.8557 18.6667 17.5V19.8333C18.6667 20.1428 18.7896 20.4395 19.0084 20.6583L20.7584 22.4083C21.214 22.8639 21.9527 22.8639 22.4083 22.4083C22.8639 21.9527 22.8639 21.214 22.4083 20.7584L21 19.3501V17.5Z" fill="#999999"/>
</svg>
