<svg width="28" height="28" viewBox="0 0 28 28" fill="none" xmlns="http://www.w3.org/2000/svg">
<path d="M2.33331 5.83334V22.1667C2.33331 24.0997 3.90032 25.6667 5.83331 25.6667H14.1178C13.4343 24.9969 12.868 24.2079 12.4525 23.3333H6.99998C5.71132 23.3333 4.66665 22.2887 4.66665 21V9.33334C4.66665 8.68901 5.18898 8.16668 5.83331 8.16668H22.1666C22.811 8.16668 23.3333 8.68901 23.3333 9.33334V12.4526C24.2079 12.868 24.9968 13.4343 25.6666 14.1179V5.83334C25.6666 3.90035 24.0996 2.33334 22.1666 2.33334H5.83331C3.90032 2.33334 2.33331 3.90035 2.33331 5.83334Z" fill="white"/>
<path d="M18.6666 11.6667H19.8333C19.2049 11.6667 18.5931 11.7377 18.0054 11.872C18.1933 11.7425 18.4211 11.6667 18.6666 11.6667Z" fill="white"/>
<path d="M15.7477 12.7605C15.7102 12.1501 15.2032 11.6667 14.5833 11.6667H13.4166C12.7723 11.6667 12.25 12.189 12.25 12.8333V14C12.25 14.5532 12.635 15.0164 13.1516 15.1364C13.8331 14.1688 14.7195 13.3557 15.7477 12.7605Z" fill="white"/>
<path d="M8.16665 11.6667C7.52231 11.6667 6.99998 12.189 6.99998 12.8333V14C6.99998 14.6443 7.52231 15.1667 8.16665 15.1667H9.33331C9.97764 15.1667 10.5 14.6443 10.5 14V12.8333C10.5 12.189 9.97764 11.6667 9.33331 11.6667H8.16665Z" fill="white"/>
<path d="M6.99998 18.6667C6.99998 18.0223 7.52231 17.5 8.16665 17.5H9.33331C9.97764 17.5 10.5 18.0223 10.5 18.6667V19.8333C10.5 20.4777 9.97764 21 9.33331 21H8.16665C7.52231 21 6.99998 20.4777 6.99998 19.8333V18.6667Z" fill="white"/>
<path fill-rule="evenodd" clip-rule="evenodd" d="M25.6666 19.8333C25.6666 23.055 23.055 25.6667 19.8333 25.6667C16.6117 25.6667 14 23.055 14 19.8333C14 16.6117 16.6117 14 19.8333 14C23.055 14 25.6666 16.6117 25.6666 19.8333ZM21 17.5C21 16.8557 20.4776 16.3333 19.8333 16.3333C19.189 16.3333 18.6666 16.8557 18.6666 17.5V19.8333C18.6666 20.1428 18.7896 20.4395 19.0084 20.6583L20.7584 22.4083C21.214 22.8639 21.9527 22.8639 22.4083 22.4083C22.8639 21.9527 22.8639 21.214 22.4083 20.7584L21 19.3501V17.5Z" fill="white"/>
</svg>
