<svg width="42" height="42" viewBox="0 0 42 42" fill="none" xmlns="http://www.w3.org/2000/svg">
<rect width="42" height="42" rx="12" fill="white" fill-opacity="0.18"/>
<rect x="0.5" y="0.5" width="41" height="41" rx="11.5" stroke="white" stroke-opacity="0.2"/>
<path d="M26.7423 9H15.2591C11.8082 9 9 11.9717 9 15.6233V26.3767C9 30.0283 11.8082 33 15.2591 33H17.6862C18.0701 33 18.3816 32.6703 18.3816 32.2641C18.3816 31.8578 18.0701 31.5281 17.6862 31.5281H15.2591C12.5746 31.5281 10.3909 29.2173 10.3909 26.3767V15.6233C10.3909 12.7827 12.5746 10.4719 15.2591 10.4719H26.7409C29.4254 10.4719 31.6091 12.7827 31.6091 15.6233V16.5418H27.8189C25.5378 16.5418 23.6824 18.5052 23.6824 20.919C23.6824 23.3329 25.5378 25.2963 27.8189 25.2963H31.6091V26.3767C31.6091 29.2173 29.4254 31.5281 26.7409 31.5281H22.0077C21.6238 31.5281 21.3123 31.8578 21.3123 32.2641C21.3123 32.6703 21.6238 33 22.0077 33H26.7409C30.1918 33 33 30.0283 33 26.3767V15.6233C33.0014 11.9717 30.1932 9 26.7423 9ZM31.5688 23.823H27.8203C26.307 23.823 25.0746 22.5204 25.0746 20.9176C25.0746 19.3162 26.3056 18.0121 27.8203 18.0121H31.5688V23.823Z" fill="white"/>
<path d="M20.0367 31.5278H19.7015C19.3176 31.5278 19.0061 31.8575 19.0061 32.2637C19.0061 32.6699 19.3176 32.9996 19.7015 32.9996H20.0367C20.4206 32.9996 20.7322 32.6699 20.7322 32.2637C20.7322 31.8575 20.4206 31.5278 20.0367 31.5278ZM19.7293 15.2535C19.7293 14.8473 19.4178 14.5176 19.0339 14.5176H14.672C14.2881 14.5176 13.9766 14.8473 13.9766 15.2535C13.9766 15.6598 14.2881 15.9895 14.672 15.9895H19.0339C19.4192 15.9895 19.7293 15.6598 19.7293 15.2535ZM27.0622 20.7877C27.0622 21.3499 27.4933 21.8062 28.0247 21.8062C28.556 21.8062 28.9872 21.3499 28.9872 20.7877C28.9872 20.2254 28.556 19.7692 28.0247 19.7692C27.4933 19.7692 27.0622 20.2254 27.0622 20.7877Z" fill="white"/>
</svg>
